<svg width="276" height="56" viewBox="0 0 276 56" fill="none" xmlns="http://www.w3.org/2000/svg">
<g filter="url(#filter0_d_43_109)">
<path d="M47.0682 39H35.875V9.90909H46.9545C49.947 9.90909 52.5322 10.4915 54.7102 11.6562C56.8977 12.8116 58.5833 14.4782 59.767 16.6562C60.9602 18.8248 61.5568 21.4242 61.5568 24.4545C61.5568 27.4848 60.965 30.089 59.7812 32.267C58.5975 34.4356 56.9214 36.1023 54.7528 37.267C52.5843 38.4223 50.0227 39 47.0682 39ZM43.7727 32.2955H46.7841C48.2235 32.2955 49.4498 32.0634 50.4631 31.5994C51.4858 31.1354 52.2623 30.3352 52.7926 29.1989C53.3324 28.0625 53.6023 26.4811 53.6023 24.4545C53.6023 22.428 53.3277 20.8466 52.7784 19.7102C52.2386 18.5739 51.4432 17.7737 50.392 17.3097C49.3504 16.8456 48.072 16.6136 46.5568 16.6136H43.7727V32.2955ZM75.8359 39.3977C73.4685 39.3977 71.442 38.929 69.7564 37.9915C68.0708 37.0445 66.7782 35.7282 65.8786 34.0426C64.9789 32.3475 64.5291 30.3826 64.5291 28.1477C64.5291 25.9129 64.9789 23.9527 65.8786 22.267C66.7782 20.572 68.0708 19.2557 69.7564 18.3182C71.442 17.3712 73.4685 16.8977 75.8359 16.8977C78.2034 16.8977 80.2299 17.3712 81.9155 18.3182C83.6011 19.2557 84.8937 20.572 85.7933 22.267C86.6929 23.9527 87.1428 25.9129 87.1428 28.1477C87.1428 30.3826 86.6929 32.3475 85.7933 34.0426C84.8937 35.7282 83.6011 37.0445 81.9155 37.9915C80.2299 38.929 78.2034 39.3977 75.8359 39.3977ZM75.8928 33.6023C76.5556 33.6023 77.1286 33.3797 77.6115 32.9347C78.0945 32.4896 78.4685 31.8551 78.7337 31.0312C78.9988 30.2074 79.1314 29.2273 79.1314 28.0909C79.1314 26.9451 78.9988 25.965 78.7337 25.1506C78.4685 24.3267 78.0945 23.6922 77.6115 23.2472C77.1286 22.8021 76.5556 22.5795 75.8928 22.5795C75.192 22.5795 74.5907 22.8021 74.0888 23.2472C73.5869 23.6922 73.2034 24.3267 72.9382 25.1506C72.6731 25.965 72.5405 26.9451 72.5405 28.0909C72.5405 29.2273 72.6731 30.2074 72.9382 31.0312C73.2034 31.8551 73.5869 32.4896 74.0888 32.9347C74.5907 33.3797 75.192 33.6023 75.8928 33.6023Z" fill="#4EA8DE"/>
<path d="M101.404 39H90.2109V9.90909H101.29C104.283 9.90909 106.868 10.4915 109.046 11.6562C111.234 12.8116 112.919 14.4782 114.103 16.6562C115.296 18.8248 115.893 21.4242 115.893 24.4545C115.893 27.4848 115.301 30.089 114.117 32.267C112.933 34.4356 111.257 36.1023 109.089 37.267C106.92 38.4223 104.359 39 101.404 39ZM98.1087 32.2955H101.12C102.559 32.2955 103.786 32.0634 104.799 31.5994C105.822 31.1354 106.598 30.3352 107.129 29.1989C107.668 28.0625 107.938 26.4811 107.938 24.4545C107.938 22.428 107.664 20.8466 107.114 19.7102C106.575 18.5739 105.779 17.7737 104.728 17.3097C103.686 16.8456 102.408 16.6136 100.893 16.6136H98.1087V32.2955ZM130.172 39.3977C127.804 39.3977 125.778 38.929 124.092 37.9915C122.407 37.0445 121.114 35.7282 120.214 34.0426C119.315 32.3475 118.865 30.3826 118.865 28.1477C118.865 25.9129 119.315 23.9527 120.214 22.267C121.114 20.572 122.407 19.2557 124.092 18.3182C125.778 17.3712 127.804 16.8977 130.172 16.8977C132.539 16.8977 134.566 17.3712 136.251 18.3182C137.937 19.2557 139.23 20.572 140.129 22.267C141.029 23.9527 141.479 25.9129 141.479 28.1477C141.479 30.3826 141.029 32.3475 140.129 34.0426C139.23 35.7282 137.937 37.0445 136.251 37.9915C134.566 38.929 132.539 39.3977 130.172 39.3977ZM130.229 33.6023C130.892 33.6023 131.464 33.3797 131.947 32.9347C132.43 32.4896 132.804 31.8551 133.07 31.0312C133.335 30.2074 133.467 29.2273 133.467 28.0909C133.467 26.9451 133.335 25.965 133.07 25.1506C132.804 24.3267 132.43 23.6922 131.947 23.2472C131.464 22.8021 130.892 22.5795 130.229 22.5795C129.528 22.5795 128.927 22.8021 128.425 23.2472C127.923 23.6922 127.539 24.3267 127.274 25.1506C127.009 25.965 126.876 26.9451 126.876 28.0909C126.876 29.2273 127.009 30.2074 127.274 31.0312C127.539 31.8551 127.923 32.4896 128.425 32.9347C128.927 33.3797 129.528 33.6023 130.229 33.6023ZM144.661 39V17.1818H152.501V39H144.661ZM148.581 14.9091C147.52 14.9091 146.611 14.5587 145.854 13.858C145.096 13.1572 144.717 12.3144 144.717 11.3295C144.717 10.3447 145.096 9.50189 145.854 8.80114C146.611 8.10038 147.52 7.75 148.581 7.75C149.651 7.75 150.56 8.10038 151.308 8.80114C152.066 9.50189 152.445 10.3447 152.445 11.3295C152.445 12.3144 152.066 13.1572 151.308 13.858C150.56 14.5587 149.651 14.9091 148.581 14.9091ZM164.337 26.7273V39H156.496V17.1818H163.94V21.3295H164.167C164.64 19.947 165.474 18.8627 166.667 18.0767C167.87 17.2907 169.271 16.8977 170.871 16.8977C172.415 16.8977 173.755 17.2528 174.891 17.9631C176.037 18.6638 176.923 19.6297 177.548 20.8608C178.182 22.0919 178.495 23.4981 178.485 25.0795V39H170.644V26.7273C170.654 25.6477 170.379 24.8002 169.82 24.1847C169.271 23.5691 168.504 23.2614 167.519 23.2614C166.875 23.2614 166.312 23.4034 165.829 23.6875C165.355 23.9621 164.991 24.3598 164.735 24.8807C164.479 25.392 164.347 26.0076 164.337 26.7273ZM192.867 47.6364C190.68 47.6364 188.805 47.3239 187.242 46.6989C185.689 46.0833 184.482 45.2311 183.62 44.142C182.768 43.0625 182.29 41.822 182.185 40.4205H189.742C189.818 40.8845 190.007 41.2585 190.31 41.5426C190.613 41.8267 191.002 42.0303 191.475 42.1534C191.958 42.286 192.498 42.3523 193.094 42.3523C194.108 42.3523 194.946 42.1061 195.609 41.6136C196.281 41.1212 196.617 40.2311 196.617 38.9432V35.25H196.39C196.106 35.9886 195.67 36.6184 195.083 37.1392C194.496 37.6506 193.79 38.0436 192.967 38.3182C192.143 38.5833 191.238 38.7159 190.254 38.7159C188.701 38.7159 187.271 38.3561 185.964 37.6364C184.666 36.9167 183.625 35.7756 182.839 34.2131C182.062 32.6506 181.674 30.6098 181.674 28.0909C181.674 25.4583 182.081 23.3182 182.896 21.6705C183.719 20.0227 184.78 18.8153 186.077 18.0483C187.384 17.2812 188.757 16.8977 190.197 16.8977C191.276 16.8977 192.223 17.0871 193.038 17.4659C193.852 17.8352 194.534 18.3324 195.083 18.9574C195.632 19.5729 196.049 20.25 196.333 20.9886H196.504V17.1818H204.344V38.9432C204.344 40.7898 203.866 42.357 202.91 43.6449C201.963 44.9422 200.628 45.9318 198.904 46.6136C197.181 47.2955 195.168 47.6364 192.867 47.6364ZM193.151 33.1477C193.871 33.1477 194.487 32.9489 194.998 32.5511C195.519 32.1439 195.916 31.5663 196.191 30.8182C196.475 30.0606 196.617 29.1515 196.617 28.0909C196.617 27.0114 196.475 26.0881 196.191 25.321C195.916 24.5445 195.519 23.9527 194.998 23.5455C194.487 23.1288 193.871 22.9205 193.151 22.9205C192.432 22.9205 191.816 23.1288 191.305 23.5455C190.803 23.9527 190.415 24.5445 190.14 25.321C189.875 26.0881 189.742 27.0114 189.742 28.0909C189.742 29.1705 189.875 30.089 190.14 30.8466C190.415 31.5947 190.803 32.1676 191.305 32.5653C191.816 32.9536 192.432 33.1477 193.151 33.1477Z" fill="#1E6F9F"/>
<path d="M219.412 39H208.219V9.90909H219.298C222.291 9.90909 224.876 10.4915 227.054 11.6562C229.241 12.8116 230.927 14.4782 232.111 16.6562C233.304 18.8248 233.901 21.4242 233.901 24.4545C233.901 27.4848 233.309 30.089 232.125 32.267C230.941 34.4356 229.265 36.1023 227.097 37.267C224.928 38.4223 222.366 39 219.412 39ZM216.116 32.2955H219.128C220.567 32.2955 221.794 32.0634 222.807 31.5994C223.83 31.1354 224.606 30.3352 225.136 29.1989C225.676 28.0625 225.946 26.4811 225.946 24.4545C225.946 22.428 225.671 20.8466 225.122 19.7102C224.582 18.5739 223.787 17.7737 222.736 17.3097C221.694 16.8456 220.416 16.6136 218.901 16.6136H216.116V32.2955ZM237.668 39V17.1818H245.509V39H237.668ZM241.589 14.9091C240.528 14.9091 239.619 14.5587 238.862 13.858C238.104 13.1572 237.725 12.3144 237.725 11.3295C237.725 10.3447 238.104 9.50189 238.862 8.80114C239.619 8.10038 240.528 7.75 241.589 7.75C242.659 7.75 243.568 8.10038 244.316 8.80114C245.074 9.50189 245.452 10.3447 245.452 11.3295C245.452 12.3144 245.074 13.1572 244.316 13.858C243.568 14.5587 242.659 14.9091 241.589 14.9091ZM257.402 39.2841C255.849 39.2841 254.419 38.8769 253.112 38.0625C251.815 37.2481 250.773 36.0123 249.987 34.3551C249.211 32.6979 248.822 30.6098 248.822 28.0909C248.822 25.4583 249.23 23.3182 250.044 21.6705C250.868 20.0227 251.929 18.8153 253.226 18.0483C254.533 17.2812 255.906 16.8977 257.345 16.8977C258.425 16.8977 259.372 17.0871 260.186 17.4659C261 17.8352 261.682 18.3324 262.232 18.9574C262.781 19.5729 263.197 20.25 263.482 20.9886H263.595V9.90909H271.436V39H263.652V35.4205H263.482C263.179 36.1591 262.743 36.822 262.175 37.4091C261.616 37.9867 260.934 38.446 260.129 38.7869C259.334 39.1184 258.425 39.2841 257.402 39.2841ZM260.3 33.2614C261.019 33.2614 261.635 33.053 262.146 32.6364C262.667 32.2102 263.065 31.6136 263.339 30.8466C263.624 30.0701 263.766 29.1515 263.766 28.0909C263.766 27.0114 263.624 26.0881 263.339 25.321C263.065 24.5445 262.667 23.9527 262.146 23.5455C261.635 23.1288 261.019 22.9205 260.3 22.9205C259.58 22.9205 258.964 23.1288 258.453 23.5455C257.951 23.9527 257.563 24.5445 257.288 25.321C257.023 26.0881 256.891 27.0114 256.891 28.0909C256.891 29.1705 257.023 30.0985 257.288 30.875C257.563 31.642 257.951 32.2339 258.453 32.6506C258.964 33.0578 259.58 33.2614 260.3 33.2614Z" fill="#5E60CE"/>
</g>
<g clip-path="url(#clip0_43_109)">
<path d="M11.0215 12.933C14.1472 16.9011 15.8158 21.7944 15.7553 26.8155V28.0141L16.7865 28.6416C18.119 29.4482 19.1127 30.6993 19.5866 32.1669C19.1705 31.8605 18.7352 31.5803 18.2833 31.3278L15.5333 29.7838L15.0391 32.9001C14.9963 33.1755 14.9389 33.4485 14.8672 33.718H7.16151C7.04692 33.3655 6.95382 33.0129 6.86789 32.6463L6.24484 29.8261L3.70968 31.2362C3.28615 31.473 2.87723 31.7344 2.48507 32.0188C2.96824 30.5682 3.94123 29.3242 5.24224 28.4935L6.22336 27.866V26.7521C6.24106 21.7513 7.92967 16.8952 11.0287 12.933H11.0215ZM11.0287 10C10.868 10.0004 10.7128 10.058 10.5918 10.1622L10.5274 10.2186C6.39778 14.7656 4.10466 20.6454 4.08208 26.745C2.32967 27.8643 1.03251 29.5543 0.417263 31.5197C-0.197979 33.485 -0.0921719 35.6007 0.716194 37.4971C1.56776 35.6455 2.99131 34.1058 4.7839 33.0975C4.96368 33.8642 5.2031 34.6161 5.50005 35.3467C5.53771 35.4871 5.62118 35.6114 5.73763 35.7006C5.85408 35.7898 5.99706 35.8388 6.14458 35.8402H16.0847C16.2852 35.8402 16.4857 35.6498 16.586 35.3537C16.8758 34.6592 17.0778 33.9322 17.1875 33.1892C18.9836 34.1932 20.4083 35.7342 21.2553 37.5887C22.1124 35.7017 22.2451 33.5727 21.6287 31.5967C21.0124 29.6206 19.6888 27.9319 17.9037 26.8437C17.9745 20.7082 15.6935 14.7718 11.5157 10.2186C11.4535 10.1501 11.3773 10.0952 11.2922 10.0576C11.2071 10.0199 11.1149 10.0003 11.0215 10H11.0287Z" fill="#4EA8DE"/>
<path d="M11.0216 26.1598C10.4715 26.1598 9.93376 25.9995 9.47611 25.699C9.01846 25.3986 8.6614 24.9715 8.44993 24.4716C8.23847 23.9716 8.18206 23.4213 8.28782 22.8898C8.39358 22.3584 8.65678 21.8697 9.04423 21.4853C9.43169 21.1009 9.92606 20.838 10.465 20.7298C11.004 20.6216 11.5634 20.6729 12.0728 20.8773C12.5822 21.0816 13.0188 21.4298 13.3275 21.8781C13.6361 22.3263 13.8031 22.8545 13.8074 23.396V23.396C13.8159 23.7469 13.7542 24.0961 13.6256 24.4235C13.4971 24.751 13.3043 25.0503 13.0582 25.3043C12.8121 25.5583 12.5176 25.7622 12.1915 25.9041C11.8654 26.0461 11.5141 26.1234 11.1576 26.1316C11.1126 26.1387 11.0666 26.1387 11.0216 26.1316V26.1598Z" fill="#4EA8DE"/>
<path d="M14.8959 37.5958C14.7167 37.5901 14.5382 37.6198 14.3708 37.683C14.2034 37.7462 14.0505 37.8416 13.9211 37.9638C13.7917 38.086 13.6884 38.2323 13.6172 38.3943C13.546 38.5563 13.5084 38.7307 13.5066 38.9072V43.067C13.5066 43.4297 13.653 43.7776 13.9135 44.0342C14.1741 44.2907 14.5274 44.4348 14.8959 44.4348C15.2644 44.4348 15.6178 44.2907 15.8783 44.0342C16.1389 43.7776 16.2852 43.4297 16.2852 43.067V38.9636C16.291 38.7877 16.2611 38.6126 16.1973 38.4482C16.1336 38.2839 16.0372 38.1337 15.9139 38.0064C15.7906 37.879 15.6428 37.7772 15.4791 37.7067C15.3154 37.6362 15.139 37.5985 14.9604 37.5958H14.8959Z" fill="#5E60CE"/>
<path d="M7.16154 37.5958C6.97931 37.5863 6.797 37.613 6.62546 37.6743C6.45392 37.7356 6.29665 37.8302 6.16302 37.9526C6.02939 38.0749 5.92213 38.2225 5.84761 38.3865C5.77309 38.5505 5.73284 38.7275 5.72925 38.9072V43.067C5.72925 43.4297 5.87562 43.7777 6.13617 44.0342C6.39672 44.2907 6.7501 44.4348 7.11857 44.4348C7.48704 44.4348 7.84042 44.2907 8.10097 44.0342C8.36152 43.7777 8.50789 43.4297 8.50789 43.067V38.9636C8.51362 38.7877 8.48373 38.6126 8.41998 38.4482C8.35623 38.2839 8.25989 38.1337 8.13658 38.0064C8.01326 37.879 7.86544 37.7772 7.70173 37.7067C7.53802 37.6362 7.36169 37.5985 7.18302 37.5958H7.16154Z" fill="#5E60CE"/>
<path d="M10.9213 37.5958C10.7426 37.592 10.5649 37.623 10.3984 37.6869C10.2318 37.7507 10.0797 37.8463 9.95068 37.9681C9.82167 38.0899 9.71828 38.2355 9.64644 38.3966C9.5746 38.5577 9.5357 38.7312 9.53198 38.9072V44.6392C9.53198 45.002 9.67836 45.3499 9.93891 45.6064C10.1995 45.8629 10.5528 46.007 10.9213 46.007C11.2898 46.007 11.6432 45.8629 11.9037 45.6064C12.1643 45.3499 12.3106 45.002 12.3106 44.6392V38.9988C12.3164 38.823 12.2865 38.6478 12.2227 38.4835C12.159 38.3191 12.0626 38.1689 11.9393 38.0416C11.816 37.9143 11.6682 37.8124 11.5045 37.7419C11.3408 37.6714 11.1644 37.6337 10.9858 37.631L10.9213 37.5958Z" fill="#5E60CE"/>
</g>
<defs>
<filter id="filter0_d_43_109" x="31.875" y="7.75" width="243.561" height="47.8864" filterUnits="userSpaceOnUse" color-interpolation-filters="sRGB">
<feFlood flood-opacity="0" result="BackgroundImageFix"/>
<feColorMatrix in="SourceAlpha" type="matrix" values="0 0 0 0 0 0 0 0 0 0 0 0 0 0 0 0 0 0 127 0" result="hardAlpha"/>
<feOffset dy="4"/>
<feGaussianBlur stdDeviation="2"/>
<feComposite in2="hardAlpha" operator="out"/>
<feColorMatrix type="matrix" values="0 0 0 0 0 0 0 0 0 0 0 0 0 0 0 0 0 0 0.25 0"/>
<feBlend mode="normal" in2="BackgroundImageFix" result="effect1_dropShadow_43_109"/>
<feBlend mode="normal" in="SourceGraphic" in2="effect1_dropShadow_43_109" result="shape"/>
</filter>
<clipPath id="clip0_43_109">
<rect width="22" height="36" fill="white" transform="translate(0 10)"/>
</clipPath>
</defs>
</svg>
